<svg id="Layer_1" data-name="Layer 1" xmlns="http://www.w3.org/2000/svg" viewBox="0 0 786.49 249.31"><defs><style>.cls-1{fill:#010101;}</style></defs><title>Untitled-2</title><g id="Eagle_Logo_Rania" data-name="Eagle Logo Rania"><path id="Eagle" class="cls-1" d="M267.18,208.4c-3.6,1.6-8.7,1.4-11,.2.7.6.8,1.7,1.3,2.4C261.08,210.6,266,211.4,267.18,208.4Zm-24.7-8.4c2.4-.2,3.1-2.2,4-4-3.7,1.7-7.8.4-10.6-1.3.6,4.1,4.3,3.1,7.9,3.5C243.68,199.2,242.58,199.1,242.48,200ZM173.78,69.5c3.1-12.4,7.5-16.7,10.3-20a76.24,76.24,0,0,1,9.7-9.9c.8-.7,3.3-1,2.6-2.6-10.4,4.4-18.6,17.5-22.5,27.7-1.6,3.2-2.6,7.5-3.6,11.7s-2.8,9.5-.9,13.7c2.3-2,1.3-5.9,1.8-8.8C172,77.3,173.08,73.3,173.78,69.5Zm62.9,116c.9,2.5,6.6,4.8,7.1,4.9C241.68,188.5,239.68,186.5,236.68,185.5Zm8,14.5c0,1.9,1.1,2.7,1.8,4,3.9,1,9.6.7,9.3-3.1C252.88,203.7,246.88,203.3,244.68,200Zm-98.1-88.7c-1.4,11.1,2.4,25.6,5.7,32.7,1.4,2.9,2.6,7.6,5.7,7.5-1.8-7.4-9-18.4-9.7-30.5-.9-14.6,5-26.4,20.3-23.4,2.5,1.6,3.5,4.7,5.7,6.6,1.7-3,3.6-5.8,4.9-9.3C165.08,85.9,148.48,95.9,146.58,111.3ZM231,180.6c.4,1.4,2.1,3.8,3.5,2.7C232.88,182.8,232.28,181.4,231,180.6ZM144.38,37.1c-10.3,13.5-14,38-11.9,60.9,4-1.3,1.9-8.1,1.8-11.5a110,110,0,0,1,3.5-32.2C139.48,47.5,142.88,42.4,144.38,37.1Zm126.3,200.5c7.5,13.1,33.3-2.8,21.6-12.8C299.28,234.9,279.88,243.6,270.68,237.6Zm-121-64.5c7.2,11.4,19.8,18,36.7,19.4,6.4.5,10.4-.1,14.6,2.2,1.9.1,1.4-2.2,3.5-1.8,8.8.7,13.8-2.4,19.4-4.9-5.1.5-11,1.8-14.6-.9-.5,3,2.5,2.5,3.5,4-7.9,2.3-14-.6-19-3.5-1.3.7.9,2.1-.4,2.7-20.3-2-44.4-7.8-43.3-29.6-.7,1.3-.9,2.9-1.8,4-10.2-7.2-25.5-24.4-27.4-42.4-1.7-16.6,8.4-22.9,23.4-21.2,2.3.8,2.1,2.6,3.1,4,.9-1.9,2.2-3.4,2.6-5.7-16.2-6.7-32.5,6.6-32.2,21.6.3,22.7,18.9,37.4,30,47.7a19.85,19.85,0,0,0-.9,5.7C148.28,175.6,148.28,173,149.68,173.1Zm74.6,15c2.1-.2,4-.7,4-3.1-3.2.4-5-.6-7.5-.9-.1,2.7,3.6,1.7,5.3,2.6C226.28,188,223.58,186.4,224.28,188.1Zm31.4,20.3a.76.76,0,0,0,.4.2C256,208.6,255.88,208.5,255.68,208.4Zm56.5-24.7c0-1.1,1.7-.6,1.8-1.8a2.1,2.1,0,0,0-2.6,0C311.18,182.9,311.48,183.6,312.18,183.7Zm53.9,55.2c.4,1.8,1.9,2.5,3.5,3.1C369.08,240.3,367.08,240.1,366.08,238.9Zm11.1-52.1c1.9.7,2.7-1.9,3.5-.9-3.4,2.6-6.8,5.5-11,7.5s-9.4,2.6-12.8,5.7c4.6-.3,9.3-2.9,13.7-5.3,4.2-2.3,9-4.5,12.4-7.1,1.6-1.3,2.4-3.4,4.4-4,6.6-1.8,11.7,2,16.3,4.4-2.9-3.6-10.4-7.5-16.8-6.2-1.4.3-2.5,2-4,2.7C380.58,184.6,376.48,183.6,377.18,186.8Zm-100.3,27.4c-1.8,2.3-7.2,1.3-9.3,0-1,1.3,1.4,2.2.9,4.4C272.48,218.6,278.08,217.9,276.88,214.2ZM377.58,181c-1.5-.1-3.6.3-4.4-.4.6-.6,0-1.5.9-2.6h0a4.57,4.57,0,0,0,0-2.6h0c-2-3.5-3.9-4.9-7.5-7.1-4.7-2.8-8.3-4.2-16.3-3.5-16.3,1.3-39.5,3.7-51.2,12.4-7.7,5.7-10.8,14.2-15,19.9-19.9-12.5-50.3-24.6-64.5-42.8-7.3-9.3-13.5-23.4-8-38,1.5-1.3,2.1-3.5,3.5-4.9.2-2-.6-2.2,0-3.5,7.3-6.8,12.8-15.4,23-19.4,3,2.9,8.8,2,12.8-.9,8.2-5.9,18-23.7,13.1-35.6a23.76,23.76,0,0,0-9.2-12.1,7.57,7.57,0,0,0-1.5-.8,32.69,32.69,0,0,0-3.3-1.4,23.13,23.13,0,0,0,2.4,2h0a.31.31,0,0,1,.2.1.52.52,0,0,0,.4.2c1.7,1.2,6.6,4.9,8.9,10.9,1.3,5.3,1.6,12.5-1.3,15.9-1.1-4.5-1.3-6.8-3.2-11.7a35.74,35.74,0,0,0-6.1-10.8c-8.9-11.4-34.4-6.8-42.8,1.3,11.2-4.2,25.8-9.2,36.7-3.1,5.5,3.1,9.3,11.3,9.7,18.1.7,12.2-8.4,19-17.2,23.4.9-1.7.1-3.4,0-5.3-2.3-2.1-8-2.2-11.5-1.3-8.9,2.1-15,11.8-17.7,18.5.5,1.4,3.8,2.3,3.1,3.5-.9-.8-3.2-.3-4.9-.4-7.5,4.4-3,14-4.4,23-.2,1.4-1.3,2.4-1.3,3.5,0,2.1,2,4.1,1.3,5.7,1.8,1,3.3,2.3,5.3,3.1,4,11.4,8.3,21.5,15.9,28.7,16.8,12.6,42.3,25.4,62.7,36.7,3.8,2.1,7.7,5.9,11.5,7.1,5.5,1.8,7.8-1.6,11-3.1,3.4,2.2,8.2,5.3,13.2,4.4-5.2-1.3-12.5-2.2-11.5-8.4-2.5.1-4.2,3.5-7.1,3.5-2.7,0-5.4-2.3-5.3-4.9.2-5.9,9.1-4.1,11.9-7.5a17.24,17.24,0,0,1-5.7.4c-1.2-.9-.5-3.6-1.3-4.9-3.3.3-5.6-.3-6.2-2.7a9,9,0,0,1,6.6-6.2c1.8,1.3,2.8,3.4,4.4,4.9,1.5-.8,0-2.3.4-4.4-.4-1.1-3.2.3-2.7-1.8,8.3-6.6,31.3-9.6,47.2-10.6h0c10.4-.6,17.1,5.4,19.9,11.9-10.2-5.7-26.5-5.2-39.3-4-6.5.6-12.3.1-16.8,2.7,5.5-.3,17,.3,19,.4,5.3.1,8.5-.2,12.8.9h.4c2.6,5.8,8.5,8.2,11.5,13.7-6.6,8.1-23.5,8.3-24.3,20.8,5.2-10.6,19.6-12,26.5-20.8,3.9-2.9,9-4.6,11.5-8.8h3.1c0,.7,2.6.7,2.6,0h.4c1,.1,1.6-.1,1.7-.9-.4-.7-2.5-.2-4-.4Zm-17.7,5.4c-3.7-.8-4.6-4.5-7.1-6.6C357.38,178.1,361.48,181.9,359.88,186.4Zm-73.3,10.5,1.8-4c1.9-3.1,4.7-5.3,6.2-8.8,1.7,2,3.1,4.3,7.5,3.5,1.6,7-4.7,8.5-11.5,8.4.1,3.6,3.7,2.3,6.6,2.2-.5,2.2,1,2.5.9,4.4,3.4,2,6.4,1.2,9.3-.4-5.8,7.7-15.2-1.3-20.8-4.4Zm118.8-7c6.3,5.8,1.2,26.5-6.6,23.8v-.4c3.5-14.2-8.7-11.4-20.8-11.9-6.8-.3-15.1-1.1-20.3-.4-4.4.6-11.9,2.5-11.5,6.6,5.1,1.2,10.4-2.8,17.2-3.1a131.34,131.34,0,0,1,19.4,1.3c4.8.8,9.6,1.5,14.6,2.2,1.4.7-.4,1.1-1.3,1.3s-10.7-1.1-20.3-2.5c-5.5-.9-14.3-1.5-19.5.3-3.5,1.2-5.1,3.7-8.4,3.1-2.2-.4-2.9-2.8-4.9-3.1-2.5,6.3,4.4,7.9,8,10.6,7.3,5.5,11.4,16.4,19,20.8,7.5-9.8,20-14.5,29.2-22.5.6.7,2.3.4,3.5.4C408.18,211.7,413.28,193.2,405.38,189.9Zm-89.2,39.3c2.8.6,2.2,4.6,4,6.2,3.1-4.6,10.8,1.1,14.6,0-4.6-1.4-8.7-3.3-14.1-4-1.2-.8-.5-3.7-2.7-3.5C318.68,229.6,316.08,228,316.18,229.2Zm24.7,6.2c-.6-1.6-2.7-1.7-4-2.7C337.38,234.5,339.48,234.6,340.88,235.4Zm-1.7-4c.1-1.3-.1-2.2-.9-2.7C338,229.8,337.28,231.5,339.18,231.4Zm-8.4-8.4c3.3.1,7,2,8.4,2.6C338.58,222.8,334,221.7,330.78,223ZM102.88,122.3c7.5-4.3-1.1-13.2-4-20.8-5-13.3-6.5-32.4-2.6-44.6C86.48,76.8,94.08,105.9,102.88,122.3Zm257.9,128.1c-2.3-1.7-4.2-3.7-7.1-4.9C355.58,247.4,358.28,250.7,360.78,250.4ZM356,237.1c-.8,1.9-1.4,4.1.4,5.3a3,3,0,0,0-1.3.9c1.7.7,4.2,4.3,5.7,2.2C357.18,244.4,357.18,239.5,356,237.1Zm-20.8.5c.8,1.5,2.7,3.9,2.2,5.3-5.5.8-13.2,1.2-15.5-2.6-3.8-.3-10.5,1.2-14.1-.9-1.4,1.4-3.5,2-4.4,4,1.9.8,3.5-2,5.7-2.2,4.3,1.3,9.8,3.1,12.8.9,3.2,3.3,8.8,1.8,11.9,4.9a5.06,5.06,0,0,0,1,4.1l.3.3v-.3a8.22,8.22,0,0,1,3.5-7.7c3.5,2.9,8.7,3.5,13.7,4-4.1-2.3-9.4-3.5-13.7-5.7C337.58,240.5,336.58,237,335.18,237.6ZM362,251h1.5c-.7-.8-1.4-1.6-2.2-2.4A10.88,10.88,0,0,0,362,251Zm-74.1-2.4c-7.7,2.6-23.4,2.1-24.7-7.1-.5-3.6,1.6-10.7,4-13.2a33.45,33.45,0,0,1,9.3-5.7c3.9-1.4,9.7-.9,12.8,0-5.5-15.1-22.4-21.2-36.2-26.5,11.4,7.3,26.1,11.3,32.7,23.4-9.6.4-15.7,4.3-20.8,9.3-1.9-1.2-4.6-1.6-6.2-3.1-.5,4.2,3,4.4,6.2,4.9-5.2,6.2-3.2,16.5,1.3,20.5H293a27.38,27.38,0,0,0,10-6.8C297.28,242.7,292.88,247,287.88,248.6Zm-48.1-11.9c.3,1.5-.5,1.9-.9,2.7-6.5,4.2-16.5,7.5-26.5,4.4.3-1,.5-3.1,1.8-4.4,9.1-1.7,14.5-7.3,26.1-5.3-.1-1.3.1-2.2.9-2.6,7.4-3.9,16.2-6.5,22.5-11.5-4.9,1.1-9.4,1-13.2-.9-.5,3.5,2.7,3.2,4,4.9-6.8,2.8-16.8,9.8-24.3,4-.3,1.8.7,2.3.4,4-8.2,4.4-21.4,8.7-31.8,3.5a4.07,4.07,0,0,1,2.2-3.1c11-.5,17.9-8.8,29.1-6.2.7-1.1.9-2.6,2.2-3.1,6.7-1.4,10.3-5.9,18.5-5.7-.5-2.5,2-1.8,2.2-3.5a35.88,35.88,0,0,1-10.2.9c-4.7-5.1,4.1-5.9,5.7-8.8-4,2.9-9.6,3-15.9,2.6.2,4.3-4.4,3.9-6.2,6.2,4.4-1.1,9.2-4,14.6-2.6a5.53,5.53,0,0,0,1.8,5.7c-4.7,3.1-12.4,5.4-19,4-1.2-.2.3,2.4-.9,2.2-10.6,3.3-23.5,10.4-36.7,5.7-.5,1.4,1.4.3.9,1.8-4,.7-5.6-3.8-3.1-5.7,15.1-.2,23.7-6.9,38.9-7.1.5-1.6,3.2-3.2,2.7-4.4-2.4,1.7-7.9,2.6-11,.9.6,1.3.3,1.7-.4,2.6-11.1,2.8-22.9,7-37.1,5.3a13.49,13.49,0,0,0-7.1-4c.2-1.3.3-2.7,1.3-3.1,17.1,1.3,27.9-3.6,43.3-4,5.2-7.3,20.1-4.9,26.5-11-5.7,1-10.2,4.1-16.3,2.2-3.1,5.5-13.5,7.5-18.5,2.7-1.4,1.9,2,2.6.9,4-18,3.4-47.3,9.9-53-9.7.6-.1.7-.7,1.3-.9,14,7.8,33.2,5.2,50.8,4.4,1.3-.3.7-2.5,2.2-2.7,5.6-.6,9-3.4,15.9-2.7,3.3-2.2,7.5-3.4,11.9-4.4a3.44,3.44,0,0,1,.4-2.6c-3.7.1-7.1,0-9.3-1.3.4,2.8,4.7,1.7,6.2,3.5-5,1.8-12.8,3.5-17.7.4-1.5,1.3,2.3,2.8,1.3,3.5-4.1,2-11.3,3.2-15.9.9-.9.4-.2,2.5-1.3,2.7-23.6,2.1-51.3,2.6-53.9-21.6-2-.5,0,3-1.3,3.1-18.1-6.6-33-18-41.5-34.4a33.21,33.21,0,0,1-2.2-7.1c-.6-2.5-.6-6.4-2.2-6.6-1.3,10,1.4,18.6,7.1,25.2,1.1,1.3,4.7,5.1,5.3,5.7,9.1,9.5,23.2,15.9,33.6,21.6-1.2,5.3,2.4,7.8,2.2,10.6-17.8-2-39.1-9.1-50.8-19.9-4.6-4.3-6.4-10.4-7.1-17.7-.1.5-.1,1-.9.9-1.5-1.2-5.3-3.7-6.2-4.4-7.3-5.9-15.4-15.5-21.6-26.1-7.8-13.2-21-40.4-3.5-50.3.6,22.7,10.3,41.5,19.9,56.5,3.9,6.1,7.9,13,14.6,15.5.1-1.4,1-1.9.9-3.5-21.6-20.4-46-74.6-23-109.5,9.6-14.6,26-23.6,47.7-19.9,4,.4,2.2,1.3,1.3,3.1-3.6,6.4-7.1,13-8.8,21.2-2.5,2.1-6,3.2-7.5,6.2,2.6-.6,4.5-3.9,7.5-2.7-2.9,18.2-2,40.4,1.8,56.5.9,3.9.6,9,4,11,.7-.7,1.5-.3,1.8-.9-4.9-16.9-10.3-39-6.6-61.4,4-24.3,23.5-45,47.7-47.7,9.9-1.1,20.5,1.9,26.5,7.9-7.3,1.6-13.3,9.5-20.8,11.9-4.4,1.4-8.9,1.2-12.4,3.5-3.1,2.1-4.5,5.2-6.6,8.8,5.6-5.1,11.5-12.5,21.6-9.3a133.81,133.81,0,0,1,17.9-13.6l.2-.1c1.4-.8,3.5-.9,4-2.7-7.9-5.4-16.9-9-27.8-8.8a57.44,57.44,0,0,0-35.8,13.2l-.3.3c-6.5-2-12.2-4.1-19.5-3-20.8,3.3-37.8,21.2-44.6,38C28.18,55,9.28,91,20.48,125.7,12,133.3,3,139.3.18,151.8c-.4,1.8-.5,2.8-.7,4.1-3.5,27.2,17.3,49.2,30.7,63.5,1.3-1,2.2-2.5,4-3.1,4.7,4,8.6,8.8,14.1,11.9a9.38,9.38,0,0,0,2.6,4.4c14,10.4,48.2,12.4,72.4,10.2,1.7,4.2,7.4,6.4,11.6,8.1h12.5c-.4-.2-1-.4-1.2-.7-1.1-2.6-3.5-2-3.5-4.7,14.1-2.4,28.1-4.9,40.6-8.8,3.3,3.8,11.8.2,15,2.7.6,3.1-3.7,3.5-6.2,4.4-5.6,2.1-12.5,5.1-19.8,7.2h8.4c3.3-.9,6.5-2,9.7-3.2,2.6-1,5.1-3.3,8-3.5,4-.4,8.7,2.4,13.2.4.4,2,1.6,3.2,1.8,5.3-.6.3-1.3.7-1.9,1h13.1a7.28,7.28,0,0,1-2.8-3.2c6.7-1.3,12.5-3.4,17.2-6.6,8.8,4.3,14-4.2,19-7.9C252.38,235.1,246.48,242.5,239.78,236.7ZM161.58,219c2.9,1.1,6.5.2,8,2.6-1.8,3.3-6.1,2.4-9.3,3.1-15.8,3.3-36.9,6.8-48.1-3.5-2.8-2.6-4.6-6.5-5.7-10.6.2-.4.5-.7.4-1.3a93.29,93.29,0,0,0,30.9,6.6c5.5.2,12.1-1.2,18.1,0C158,216.4,159.48,218.2,161.58,219Zm-66.1-37.6a1.61,1.61,0,0,1,1.3.6c8.3,8.3,21.1,13.3,34.9,16.3,4.7,1,10.9.9,15,2.7,2.3,1,3.8,3.6,6.2,4.4-.2,3.3,2.4,3.7,2.6,6.6-22.5,1.7-59.6,0-60.5-29.2C95,181.1,95.28,181.5,95.48,181.4ZM58.68,54.3c-.5,5.9-2.7,16.1-1.3,23.8-22.8,13.5-7.2,47.7,3.5,63.2a96.84,96.84,0,0,0,11,12.4c5.2,5.1,10.3,9.9,17.2,11.5-.4,2.8-2.2,4.2-2.7,6.6-1.5,8.7,4.5,14.1,6.2,19-23.5-6.8-40.6-23.6-53.9-42-6-8.4-14.5-19.6-16.8-32.2C16.58,85.7,30,59.5,58.68,54.3ZM44.18,214.6a76.05,76.05,0,0,1-30-23.4c-6.7-8.9-14.2-20.8-11.9-37.1,1.3-9.6,7.5-22.1,19.9-19.9,2.6,6.4,4,14,7.5,19.4.4.1.4-.2.4-.4,0-2.2,1.7-2.7,2.2-4.4,14.9,20.6,32.8,38.1,60.1,46.4-.3,2.8.7,4.3.4,7.1-2.1.4-12.3-3.2-15.5-4.4-14.6-5.5-29.1-13.9-38.4-25.6-3.8-4.7-5.1-10.8-8.4-16.8-4.4,5.8,0,16.3,4,21.6,11.3,15,37.4,25.9,57.9,29.1,1.7,6.7,6.2,10.6,11.9,13.2.3,4.8,3.1,7.2,4.4,11-16.3-1.4-34.5-6-47.7-10.6C55.28,218,49.18,216.8,44.18,214.6ZM113,241.5c-14.8.7-27.6-2.2-41.5-5.7-9.1-2.3-20.5-6.9-23-13.7.4-.1.4-.4.9-.4a206.93,206.93,0,0,0,42.4,10.6c12.2,1.6,22.7,2.3,31.8,7.1C121.38,241.7,116.68,241.4,113,241.5Zm34.5.5a30.83,30.83,0,0,1-22.5-8c1.2-4.5,6.2-2.5,9.3-2.6a165.26,165.26,0,0,0,34.9-5.7c2.1,1.4,5.1,3.6,8.4,4.4,2,.5,4.7-.9,5.7,1.8C174.18,236.5,160.08,241.3,147.48,242Zm168.3,6.6a20.46,20.46,0,0,1-3.6,2.4h2.9a10,10,0,0,0,2.4-5.5C315.68,245.3,316.38,247.6,315.78,248.6ZM148.38,69.3c-1.1,7.9-3.9,18.6-1.8,26.9,3.5-2.4,2.2-8.6,2.2-13.2,0-4.2.1-7.7.3-11a114.62,114.62,0,0,1,4.6-22.6c2.8-8.1,8.6-15,11.5-21.7-9.9,11.2-15,28-16.8,41.6Zm45.9,23.4c-5.1-.7-10.3.7-13.2,2.7-8,9.6-10.8,32.1-4.4,45.9.7-6.1-2.1-13.6-1.8-21.2.5-13.2,6.3-24.8,20.8-23.4,3.4.3,5.3,2.4,8,4C205.78,96.3,199.18,93.3,194.28,92.7Zm1.6,45.1c-.8-.1-.8.3-.3.6,11.1,3,14.2,18.2,14.2,18.2s.3.6.4.1a11.49,11.49,0,0,0-.2-2.1S207.18,135.6,195.88,137.8Zm51,109c.2,1.6-.4,2.3-1.3,2.7-1.2.5-2.7,1-4.3,1.5h12.3a3.91,3.91,0,0,0,1.2-2.4C251.28,248.9,249.58,247.3,246.88,246.8ZM189,140.4c-2.7-1.9-4.7,4.4-6.6,6.2-.7-1.3-1.4-2.8-3.1-3.1.5,2.3,2.4,3.1,3.1,5.3,1,6.4,2.7,11.2,6.2,15,2,2.2,4.9,5.2,7.5,4.9-4.3-6-10-10.6-12.4-18.5C184.58,146,186.08,142.5,189,140.4Zm8.8,22.1c-1.7,5.4,3,8.2,6.6,9.7C201.58,169.6,198.48,167.2,197.78,162.5Zm-3,21.2c1.2-.1.6-2.1,2.2-1.8,9.1-.6,13.5,2.2,21.2-.9-7.3,2-12.1-3.8-16.3-5.7.5,2.7,2.7,3.8,4.4,5.3a16.24,16.24,0,0,1-16.3-6.2c-1.7,2.2,1.9,4,.9,5.3-13-5.4-29.8-15.8-23.8-33.1C155.88,165.3,179.28,180.1,194.78,183.7ZM31.78,227c-.6-1.6.6-3.9-1.8-4.9a18.69,18.69,0,0,0,.9,11,60.37,60.37,0,0,0,11.5,17.8h21.7c-8.6-2.4-16.2-5.8-20.4-10.3C39.08,236.9,34,233.1,31.78,227ZM234.08,32.2c-5.5,1.1-10.5,2.7-15.9,4-1.7-.8-4.7-2.6-6.6-1.8,1.6.9,4.1.9,4.9,2.6-7.3,4.4-16.8,8.4-23,15.9-7.3,9-14.8,21.5-15.9,33.6-.2,2-1,6.4,1.8,6.6.9-12.5,3.9-20.6,8.8-29.1,9.9-17.2,25.9-29,51.7-28.7,2,0,7,1.8,4.9-2.2,0,0-3.1-3.7-7.5-8.4-6.4-7.2-16.2-12.7-29.6-13.7-4.7-.4-10.4-.6-13.7,2.2C214,11.1,228.68,18.1,234.08,32.2Zm-10.2,140.9c-2.5-2.8-4.4-6.2-6.6-9.3-2.3,2.6.4,4.3,1.8,5.3C221.68,171,221.48,174.6,223.88,173.1Zm.9,1.3c-2.4,4.3-8.2,3.1-11,0,.6,5.3,8.2,6.1,11,2.2,1.3.7,1.9,2.2,3.5,2.7C228,176.6,224.78,176.1,224.78,174.4Z" transform="translate(0.91 -2.09)"/></g><g id="National_Archives" data-name="National Archives"><path class="cls-1" d="M442.08,179.8c.1,4.4.6,5.8,2.1,6.3a10,10,0,0,0,2.7.3c.3,0,.4.1.4.3s-.3.4-1,.4c-3.1,0-5.2-.2-5.7-.2s-2.8.2-5.2.2c-.5,0-.9-.1-.9-.4s.2-.3.4-.3a11.2,11.2,0,0,0,2.2-.3c1.4-.4,1.6-1.9,1.6-6.9l.1-31c0-2.1.2-2.7.6-2.7s1.4,1.2,1.9,1.7c.8.9,8.9,9.6,17.2,18.6,5.4,5.7,11.3,12.3,13,14.1l-.6-27.5c-.1-3.5-.4-4.7-2.1-5.1a16.81,16.81,0,0,0-2.7-.3c-.4,0-.4-.2-.4-.4s.4-.4,1.1-.4c2.4,0,5,.2,5.6.2s2.4-.2,4.6-.2c.6,0,1,.1,1,.4s-.2.4-.6.4a4,4,0,0,0-1.3.2c-1.8.4-2,1.6-2,4.8l-.1,31.7c0,3.6-.1,3.8-.5,3.8s-1.1-.6-3.9-3.5c-.6-.5-8.4-8.5-14.1-14.7-6.3-6.8-12.4-13.6-14.1-15.5Z" transform="translate(0.91 -2.09)"/><path class="cls-1" d="M505.48,147.7c.6-1.8.9-2.1,1.2-2.1s.5.3,1.2,1.9c.8,2.1,9.3,24.4,12.6,32.6,1.9,4.8,3.5,5.7,4.7,6a6.09,6.09,0,0,0,2.2.3c.3,0,.5.1.5.3s-.5.4-1.1.4c-.8,0-4.8,0-8.5-.1-1-.1-1.6-.1-1.6-.4s.2-.3.4-.4.6-.6.3-1.5l-5-13.3a.46.46,0,0,0-.5-.3h-11.6c-.3,0-.4.2-.5.4l-3.2,9.6a11.84,11.84,0,0,0-.8,3.6c0,1.1,1.1,1.6,2.1,1.6h.5c.4,0,.5.1.5.3s-.3.4-.8.4c-1.3,0-3.6-.2-4.2-.2s-3.6.2-6.1.2c-.7,0-1-.1-1-.4s.2-.3.5-.3,1.1-.1,1.6-.1c2.5-.3,3.6-2.4,4.5-5.1Zm5.6,21.6c.3,0,.3-.2.2-.4l-5.1-14.6c-.3-.8-.5-.8-.8,0l-4.8,14.6c-.1.3,0,.4.2.4Z" transform="translate(0.91 -2.09)"/><path class="cls-1" d="M550.48,171.5a116.8,116.8,0,0,0,.3,11.7c.2,1.6.5,2.8,2.1,3,.8.1,1.9.2,2.4.2.3,0,.4.2.4.3,0,.3-.3.4-.9.4-3,0-6.4-.2-6.7-.2s-3.7.2-5.3.2c-.6,0-.9-.1-.9-.4s.1-.3.4-.3a8.75,8.75,0,0,0,1.6-.2c1.1-.2,1.4-1.4,1.6-3,.3-2.3.3-6.5.3-11.7V148.6l-8,.1c-3.4.1-4.7.4-5.5,1.7a5.56,5.56,0,0,0-.9,1.7c-.2.4-.3.5-.5.5s-.3-.2-.3-.5c0-.5,1.1-5.2,1.2-5.6s.3-1,.5-1a10.74,10.74,0,0,0,2.4.6c1.6.2,3.6.3,4.3.3h20.4a29.47,29.47,0,0,0,5.4-.5c.3,0,.3.3.3.7,0,1.6-.2,5.4-.2,6s-.2.7-.4.7-.4-.2-.4-.9l-.1-.6c-.2-1.6-1.5-2.9-6.7-3l-6.8-.1Z" transform="translate(0.91 -2.09)"/><path class="cls-1" d="M586.28,171.5a116.8,116.8,0,0,0,.3,11.7c.2,1.6.5,2.8,2.1,3,.8.1,1.9.2,2.4.2.3,0,.4.2.4.3,0,.3-.3.4-.9.4-3,0-6.4-.2-6.7-.2s-3.7.2-5.3.2c-.6,0-.9-.1-.9-.4s.1-.3.4-.3a8.75,8.75,0,0,0,1.6-.2c1.1-.2,1.4-1.4,1.6-3,.3-2.3.3-6.5.3-11.7V162c0-8.4,0-10-.1-11.7s-.6-2.8-1.8-3a5.55,5.55,0,0,0-1.7-.2c-.2,0-.4-.1-.4-.3s.3-.4.9-.4c1.8,0,5.2.2,5.5.2s3.7-.2,5.3-.2c.6,0,.9.1.9.4s-.2.3-.4.3a11.48,11.48,0,0,0-1.4.2c-1.5.3-1.9,1.2-2,3.1-.1,1.7-.1,3.2-.1,11.7v9.4Z" transform="translate(0.91 -2.09)"/><path class="cls-1" d="M623.78,145.6c12.2,0,21.3,7.7,21.3,20.3,0,12.1-8.5,22.1-21.6,22.1-14.8,0-21-11.5-21-21.3C602.48,157.9,608.88,145.6,623.78,145.6Zm1.2,40.3c4.9,0,14.9-2.8,14.9-18.6,0-13-7.9-20-16.4-20-9,0-15.8,6-15.8,17.8C607.68,177.8,615.18,185.9,625,185.9Z" transform="translate(0.91 -2.09)"/><path class="cls-1" d="M663.88,179.8c.1,4.4.6,5.8,2.1,6.3a10,10,0,0,0,2.7.3c.3,0,.4.1.4.3s-.3.4-1,.4c-3.1,0-5.2-.2-5.7-.2s-2.8.2-5.2.2c-.5,0-.9-.1-.9-.4s.2-.3.4-.3a11.2,11.2,0,0,0,2.2-.3c1.4-.4,1.6-1.9,1.6-6.9l.1-31c0-2.1.2-2.7.6-2.7s1.4,1.2,1.9,1.7c.8.9,8.9,9.6,17.2,18.6,5.4,5.7,11.3,12.3,13,14.1l-.6-27.5c-.1-3.5-.4-4.7-2.1-5.1a16.81,16.81,0,0,0-2.7-.3c-.4,0-.4-.2-.4-.4s.4-.4,1.1-.4c2.4,0,5,.2,5.6.2s2.4-.2,4.6-.2c.6,0,1,.1,1,.4s-.2.4-.6.4a4,4,0,0,0-1.3.2c-1.8.4-2,1.6-2,4.8l-.1,31.7c0,3.6-.1,3.8-.5,3.8s-1.1-.6-3.9-3.5c-.6-.5-8.4-8.5-14.1-14.7-6.3-6.8-12.4-13.6-14.1-15.5Z" transform="translate(0.91 -2.09)"/><path class="cls-1" d="M727.28,147.7c.6-1.8.9-2.1,1.2-2.1s.5.3,1.2,1.9c.8,2.1,9.3,24.4,12.6,32.6,1.9,4.8,3.5,5.7,4.7,6a6.09,6.09,0,0,0,2.2.3c.3,0,.5.1.5.3s-.5.4-1.1.4c-.8,0-4.8,0-8.5-.1-1-.1-1.6-.1-1.6-.4s.2-.3.4-.4.7-.6.3-1.5l-5-13.3a.46.46,0,0,0-.5-.3h-11.6c-.3,0-.4.2-.5.4l-3.2,9.6a11.84,11.84,0,0,0-.8,3.6c0,1.1,1.1,1.6,2.1,1.6h.5c.4,0,.5.1.5.3s-.3.4-.8.4c-1.3,0-3.6-.2-4.2-.2s-3.6.2-6.1.2c-.7,0-1-.1-1-.4s.2-.3.5-.3,1.1-.1,1.6-.1c2.5-.3,3.6-2.4,4.5-5.1Zm5.6,21.6c.3,0,.3-.2.2-.4L728,154.3c-.3-.8-.5-.8-.8,0l-4.8,14.6c-.1.3,0,.4.2.4Z" transform="translate(0.91 -2.09)"/><path class="cls-1" d="M769.18,171.6c0,8,.2,11.4,1.2,12.4s2.3,1.2,6.5,1.2c2.9,0,5.2-.1,6.5-1.6a8.25,8.25,0,0,0,1.4-3.2c.1-.4.2-.7.5-.7s.3.2.3.8a39.09,39.09,0,0,1-.8,5.4c-.4,1.2-.5,1.5-3.4,1.5-7.8,0-11.4-.3-14.5-.3-.5,0-3.7.2-5.3.2-.6,0-.9-.1-.9-.4s.1-.3.4-.3a8.75,8.75,0,0,0,1.6-.2c1.1-.2,1.4-1.4,1.6-3,.3-2.3.3-6.5.3-11.7v-9.5c0-8.4,0-10-.1-11.7s-.5-2.7-2.3-3.1a11,11,0,0,0-1.8-.2c-.2,0-.4-.1-.4-.3s.3-.4.9-.4c2.4,0,5.8.2,6.1.2s4.2-.2,5.8-.2c.6,0,.9.1.9.4s-.2.3-.4.3a16.24,16.24,0,0,0-1.8.2c-1.6.3-2,1.2-2.1,3.1-.1,1.7-.1,3.2-.1,11.7v9.4Z" transform="translate(0.91 -2.09)"/><path class="cls-1" d="M449.58,207.8c.7-1.9.9-2.2,1.3-2.2s.6.3,1.3,2.1c.9,2.2,9.9,26,13.4,34.7,2.1,5.1,3.7,6.1,5,6.4a6.9,6.9,0,0,0,2.3.3c.3,0,.6.1.6.3s-.5.5-1.2.5c-.9,0-5.1,0-9-.1-1.1-.1-1.7-.1-1.7-.4s.2-.3.4-.4.7-.6.3-1.6l-5.4-14.2a.46.46,0,0,0-.5-.3H444a.63.63,0,0,0-.6.5l-3.5,10.2a12.31,12.31,0,0,0-.8,3.9c0,1.2,1.2,1.7,2.2,1.7h.6q.6,0,.6.3c0,.3-.3.5-.9.5-1.4,0-3.9-.2-4.5-.2s-3.8.2-6.5.2c-.8,0-1.1-.1-1.1-.5,0-.2.2-.3.5-.3s1.2-.1,1.7-.1c2.6-.3,3.8-2.5,4.8-5.4Zm6,23.1c.3,0,.3-.2.2-.4l-5.5-15.6q-.45-1.35-.9,0l-5.1,15.6c-.1.3,0,.4.2.4Z" transform="translate(0.91 -2.09)"/><path class="cls-1" d="M488.48,223.1c0-9,0-10.6-.1-12.4-.1-2-.6-2.9-2.5-3.3a12.31,12.31,0,0,0-2-.2c-.2,0-.5-.1-.5-.3s.3-.5.9-.5c2.6,0,6.2.2,6.5.2.6,0,5-.2,6.8-.2,3.6,0,7.5.3,10.5,2.5a10.2,10.2,0,0,1,4,7.8c0,4.3-1.8,8.5-7,13.3,4.7,6.1,8.6,11.2,12,14.8,3.1,3.3,5.6,3.9,7,4.1a11.88,11.88,0,0,0,2.2.2c.3,0,.5.2.5.3,0,.3-.3.5-1.4.5h-4.1c-3.2,0-4.7-.3-6.2-1.1-2.5-1.3-4.5-4.1-7.8-8.5-2.4-3.2-5.1-7-6.3-8.5a1,1,0,0,0-.8-.3l-7.1-.1c-.3,0-.4.2-.4.5v1.4c0,5.5,0,10.1.3,12.5.2,1.7.5,2.9,2.2,3.2.8.1,2.1.2,2.6.2.3,0,.5.2.5.3,0,.3-.3.5-.9.5-3.2,0-6.8-.2-7.1-.2-.1,0-3.7.2-5.4.2-.6,0-.9-.1-.9-.5,0-.2.1-.3.5-.3a9.85,9.85,0,0,0,1.7-.2c1.2-.2,1.4-1.5,1.7-3.2.3-2.4.3-7,.3-12.5V223.1Zm4.6,5a.75.75,0,0,0,.4.7,16.56,16.56,0,0,0,6.1.9,7.49,7.49,0,0,0,4.3-1.1c2-1.4,3.5-4.5,3.5-8.9,0-7.2-3.8-11.5-10-11.5a26.54,26.54,0,0,0-3.9.3.67.67,0,0,0-.5.7v18.9Z" transform="translate(0.91 -2.09)"/><path class="cls-1" d="M536.68,244.5c-5.6-5-7-11.6-7-17.1a22.58,22.58,0,0,1,6.5-15.7c3.5-3.5,8.7-6.2,17.6-6.2a52.73,52.73,0,0,1,8.4.7c2.2.4,4,.7,5.9.9.6.1.8.3.8.6,0,.5-.2,1.2-.3,3.2s-.1,5.1-.2,5.9-.2,1.2-.5,1.2-.5-.4-.5-1.2a8.14,8.14,0,0,0-2.4-5.9c-2-1.7-6.5-3.3-11.5-3.3-7.7,0-11.2,2.2-13.3,4.2-4.2,4-5.2,9.2-5.2,15,0,11,8.5,21.1,20.8,21.1,4.3,0,7.7-.5,10-2.9a10.37,10.37,0,0,0,2.1-4.8c.1-.6.2-.9.6-.9s.4.4.4.9a58.28,58.28,0,0,1-1.3,7.4c-.3,1.1-.5,1.2-1.5,1.7-2.3.9-6.7,1.3-10.4,1.3C547,250.7,541.18,248.6,536.68,244.5Z" transform="translate(0.91 -2.09)"/><path class="cls-1" d="M621.58,233.2c0,5.5,0,10.1.3,12.5.2,1.7.5,2.9,2.2,3.2.8.1,2.1.2,2.6.2.3,0,.5.2.5.3,0,.3-.3.5-.9.5-3.2,0-6.8-.2-7.1-.2s-3.9.2-5.6.2c-.6,0-.9-.1-.9-.5,0-.2.1-.3.5-.3a9.85,9.85,0,0,0,1.7-.2c1.2-.2,1.4-1.5,1.7-3.2.3-2.4.3-7,.3-12.5v-6.1a.32.32,0,0,0-.3-.3h-24.4a.27.27,0,0,0-.3.3v6.1c0,5.5,0,10.1.3,12.5.2,1.7.5,2.9,2.2,3.2.8.1,2.1.2,2.6.2.3,0,.5.2.5.3,0,.3-.3.5-.9.5-3.2,0-6.8-.2-7.1-.2s-3.9.2-5.6.2c-.6,0-.9-.1-.9-.5,0-.2.1-.3.5-.3a9.85,9.85,0,0,0,1.7-.2c1.2-.2,1.4-1.5,1.7-3.2.3-2.4.3-7,.3-12.5V223.1c0-9,0-10.6-.1-12.4-.1-2-.6-2.9-2.5-3.3a12.31,12.31,0,0,0-2-.2c-.2,0-.5-.1-.5-.3s.3-.5.9-.5c2.6,0,6.2.2,6.5.2s3.9-.2,5.6-.2c.6,0,.9.1.9.5,0,.2-.2.3-.5.3a11.48,11.48,0,0,0-1.4.2c-1.6.3-2,1.3-2.1,3.3-.1,1.8-.1,3.5-.1,12.4v1.2c0,.3.2.3.3.3h24.2a.27.27,0,0,0,.3-.3v-1.2c0-9,0-10.6-.1-12.4-.1-2-.6-2.9-2.5-3.3a12.31,12.31,0,0,0-2-.2c-.2,0-.5-.1-.5-.3s.3-.5.9-.5c2.6,0,6.2.2,6.5.2s3.9-.2,5.6-.2c.6,0,.9.1.9.5,0,.2-.2.3-.5.3a9.32,9.32,0,0,0-1.4.2c-1.6.3-2,1.3-2.1,3.3-.1,1.8-.1,3.5-.1,12.4v10.1Z" transform="translate(0.91 -2.09)"/><path class="cls-1" d="M650.18,233.2c0,5.5,0,10.1.3,12.5.2,1.7.5,2.9,2.2,3.2.8.1,2.1.2,2.6.2.3,0,.5.2.5.3,0,.3-.3.5-.9.5-3.2,0-6.8-.2-7.1-.2s-3.9.2-5.6.2c-.6,0-.9-.1-.9-.5,0-.2.1-.3.5-.3a9.85,9.85,0,0,0,1.7-.2c1.2-.2,1.4-1.5,1.7-3.2.3-2.4.3-7,.3-12.5V223.1c0-9,0-10.6-.1-12.4-.1-2-.7-2.9-2-3.2a6.17,6.17,0,0,0-1.8-.2c-.2,0-.5-.1-.5-.3s.3-.5.9-.5c1.9,0,5.5.2,5.8.2s3.9-.2,5.6-.2c.6,0,.9.1.9.5,0,.2-.2.3-.5.3a9.32,9.32,0,0,0-1.4.2c-1.6.3-2,1.3-2.1,3.3-.1,1.8-.1,3.5-.1,12.4v10Z" transform="translate(0.91 -2.09)"/><path class="cls-1" d="M689.68,242.9c3.3-7.7,11.1-27.8,12.3-32a8.17,8.17,0,0,0,.5-2.2,1.46,1.46,0,0,0-.7-1.3,8.58,8.58,0,0,0-2.2-.2c-.3,0-.6-.1-.6-.3s.3-.5,1.3-.5c2.3,0,5,.2,5.6.2.3,0,2.8-.2,4.5-.2.6,0,1,.1,1,.4s-.2.4-.7.4a5.29,5.29,0,0,0-2.8.7c-.7.5-1.6,1.5-3.2,5.4-.6,1.6-3.5,8.5-6.5,15.6-3.5,8.4-6.1,14.6-7.4,17.5-1.6,3.5-1.8,4.4-2.4,4.4s-1-.8-2.1-3.6l-14.1-35.3c-1.3-3.2-2.1-3.9-4.1-4.4a10.28,10.28,0,0,0-2.2-.2.46.46,0,0,1-.5-.4c0-.3.6-.4,1.5-.4,2.8,0,6.1.2,6.7.2s3.2-.2,5.4-.2c1,0,1.6.1,1.6.4s-.2.4-.6.4a7.8,7.8,0,0,0-2.2.3,1.15,1.15,0,0,0-.7,1.2,21.13,21.13,0,0,0,1.6,4.8Z" transform="translate(0.91 -2.09)"/><path class="cls-1" d="M727,223.1c0-9,0-10.6-.1-12.4-.1-2-.6-2.9-2.5-3.3a12.31,12.31,0,0,0-2-.2c-.2,0-.5-.1-.5-.3s.3-.5.9-.5c2.6,0,6.2.2,6.5.2s11.9,0,13.2-.1c1.1-.1,2-.2,2.5-.3.3-.1.5-.3.8-.3s.2.2.2.5-.3,1.1-.5,2.7c-.1.6-.2,3.1-.3,3.8-.1.3-.2.6-.4.6s-.5-.3-.5-.8a9.54,9.54,0,0,0-.3-2.1c-.4-.9-1-1.6-4.1-2-1-.1-7.3-.2-7.9-.2q-.3,0-.3.6v15.9q0,.6.3.6c.7,0,7.8,0,9.2-.1s2.2-.2,2.7-.8.6-.7.9-.7.3.1.3.5-.3,1.3-.5,3.2c-.1,1.2-.2,3.3-.2,3.7s0,1.1-.4,1.1-.4-.2-.4-.5a6.48,6.48,0,0,0-.2-1.9c-.2-.8-.7-1.8-3-2-1.6-.2-7.3-.3-8.2-.3a.37.37,0,0,0-.4.4v5.1c0,2-.1,8.6,0,9.9.2,4,1,4.7,6.7,4.7a17.22,17.22,0,0,0,5.5-.6c1.5-.6,2.2-1.8,2.6-4.1.1-.6.2-.9.5-.9s.3.5.3.9a53.4,53.4,0,0,1-.8,5.6c-.4,1.5-.9,1.5-3.1,1.5-8.7,0-12.6-.3-14.2-.3-.3,0-3.9.2-5.6.2-.6,0-.9-.1-.9-.5,0-.2.1-.3.5-.3a9.85,9.85,0,0,0,1.7-.2c1.2-.2,1.4-1.5,1.7-3.2.3-2.4.3-7,.3-12.5V223.1Z" transform="translate(0.91 -2.09)"/><path class="cls-1" d="M761.88,249.2c-.8-.4-.9-.6-.9-2.2a59,59,0,0,1,.3-6.1c.1-.6.2-.9.5-.9s.4.2.4.6a8.61,8.61,0,0,0,.2,2.1c.9,4.3,4.7,5.9,8.5,5.9,5.5,0,8.2-4,8.2-7.7,0-4-1.7-6.3-6.6-10.4l-2.6-2.1c-6.1-5-7.5-8.6-7.5-12.5,0-6.2,4.6-10.4,11.9-10.4a20.64,20.64,0,0,1,5.4.6,13.49,13.49,0,0,0,2,.3c.4,0,.6.1.6.4s-.2,2.2-.2,6.1c0,.9-.1,1.3-.4,1.3s-.4-.3-.5-.7a15.29,15.29,0,0,0-.7-2.9c-.3-.6-1.9-3.1-7.2-3.1-4,0-7.1,2.5-7.1,6.7,0,3.3,1.6,5.2,7,9.7l1.6,1.3c6.8,5.4,8.4,8.9,8.4,13.5a12,12,0,0,1-4.9,9.6,15.43,15.43,0,0,1-8.7,2.4A18.25,18.25,0,0,1,761.88,249.2Z" transform="translate(0.91 -2.09)"/></g></svg>